<svg width="75" height="75" viewBox="0 0 75 75" fill="none" xmlns="http://www.w3.org/2000/svg">
<path d="M18.8833 61.4104C18.1709 61.0285 17.7246 60.2839 17.7246 59.4727V52.7585C7.8498 51.6621 0 43.2678 0 33.1055C0 22.2007 9.01714 13.3301 19.9219 13.3301H55.0781C65.9829 13.3301 75 22.2007 75 33.1055C75 44.0102 65.9829 52.8809 55.0781 52.8809H33.7707L21.1406 61.3008C20.4564 61.7544 19.5935 61.7887 18.8833 61.4104Z" fill="#FFDB66"/>
<path d="M55.0781 13.3301H37.5V52.8809H55.0781C65.9829 52.8809 75 44.0102 75 33.1055C75 22.2007 65.9829 13.3301 55.0781 13.3301Z" fill="#FFBC36"/>
<path d="M41.8945 22.1191C40.68 22.1191 39.6973 23.1019 39.6973 24.3164V41.8945C39.6973 43.109 40.68 44.0918 41.8945 44.0918C43.109 44.0918 44.0918 43.109 44.0918 41.8945V24.3164C44.0918 23.1019 43.109 22.1191 41.8945 22.1191Z" fill="#593B35"/>
<path d="M50.6836 22.1191C49.4691 22.1191 48.4863 23.1019 48.4863 24.3164V33.1055C48.4863 34.32 49.4691 35.3027 50.6836 35.3027C51.8981 35.3027 52.8809 34.32 52.8809 33.1055V24.3164C52.8809 23.1019 51.8981 22.1191 50.6836 22.1191Z" fill="#593B35"/>
<path d="M33.1055 22.1191C31.891 22.1191 30.9082 23.1019 30.9082 24.3164V30.9082H26.5137V24.3164C26.5137 23.1019 25.5309 22.1191 24.3164 22.1191C23.1019 22.1191 22.1191 23.1019 22.1191 24.3164V41.8945C22.1191 43.109 23.1019 44.0918 24.3164 44.0918C25.5309 44.0918 26.5137 43.109 26.5137 41.8945V35.3027H30.9082V41.8945C30.9082 43.109 31.891 44.0918 33.1055 44.0918C34.32 44.0918 35.3027 43.109 35.3027 41.8945V24.3164C35.3027 23.1019 34.32 22.1191 33.1055 22.1191Z" fill="#80564D"/>
<path d="M50.6836 44.0918C51.8971 44.0918 52.8809 43.108 52.8809 41.8945C52.8809 40.681 51.8971 39.6973 50.6836 39.6973C49.4701 39.6973 48.4863 40.681 48.4863 41.8945C48.4863 43.108 49.4701 44.0918 50.6836 44.0918Z" fill="#593B35"/>
</svg>
